<?xml version="1.0" standalone="no"?>
<!DOCTYPE svg PUBLIC "-//W3C//DTD SVG 20010904//EN"
 "http://www.w3.org/TR/2001/REC-SVG-20010904/DTD/svg10.dtd">
<svg version="1.0" xmlns="http://www.w3.org/2000/svg"
 width="619.000000pt" height="522.000000pt" viewBox="0 0 619.000000 522.000000"
 preserveAspectRatio="xMidYMid meet">
<metadata>
Created by potrace 1.16, written by Peter Selinger 2001-2019
</metadata>
<g transform="translate(0.000000,522.000000) scale(0.100000,-0.100000)"
fill="#000000" stroke="none">
<path d="M4344 5188 c-16 -12 -51 -43 -79 -69 -53 -50 -184 -149 -198 -149 -4
0 -5 5 -2 10 11 18 -23 60 -48 60 -27 0 -73 -46 -109 -107 l-24 -43 -34 35
c-26 26 -35 47 -40 82 -14 124 -130 54 -130 -79 0 -64 28 -125 94 -203 23 -27
50 -61 59 -75 31 -44 16 -140 -21 -140 -41 0 -161 -71 -209 -124 -33 -35 -59
-55 -82 -59 -18 -4 -45 -16 -61 -27 -16 -11 -44 -20 -65 -20 -44 0 -102 -25
-115 -51 -14 -26 -40 -49 -54 -49 -7 0 -18 18 -25 41 -15 48 -71 114 -120 138
-20 10 -82 33 -139 51 -89 28 -107 38 -137 73 -19 22 -35 44 -35 49 0 4 -16 8
-35 8 -28 0 -38 -5 -46 -24 -11 -24 -12 -24 -53 -9 -64 25 -231 22 -336 -6
-47 -12 -95 -29 -107 -37 -29 -18 -30 -55 -2 -80 19 -17 20 -25 14 -109 -6
-77 -4 -99 14 -152 23 -69 25 -76 13 -69 -18 11 -52 -25 -52 -54 0 -21 12 -38
46 -69 26 -23 51 -41 57 -41 6 0 -10 -20 -36 -44 -25 -25 -55 -62 -66 -84
l-20 -40 21 -27 c14 -18 27 -25 40 -22 15 4 18 2 13 -11 -4 -9 -17 -43 -28
-74 -21 -55 -21 -57 -3 -77 16 -18 17 -25 8 -47 -21 -45 -15 -75 18 -87 23 -9
28 -16 24 -33 -8 -32 30 -68 62 -60 14 4 24 2 24 -4 0 -19 -50 -209 -62 -234
-22 -49 43 -101 80 -64 17 17 16 -2 -4 -51 -26 -66 14 -108 75 -77 45 24 63
21 55 -8 -7 -28 25 -66 55 -66 11 0 22 -8 25 -17 25 -81 66 -261 66 -288 0
-43 37 -73 69 -56 25 14 27 10 35 -64 l6 -60 -132 1 c-135 0 -328 13 -328 22
0 2 14 22 31 43 28 35 97 75 202 118 32 13 42 31 33 64 -8 34 -49 49 -153 55
-77 4 -93 8 -98 22 -24 75 -127 148 -217 154 -34 2 -81 16 -132 40 -94 44
-180 66 -258 66 -52 0 -60 -3 -79 -29 -23 -31 -65 -47 -144 -55 -27 -3 -94
-19 -149 -35 -54 -17 -120 -31 -147 -31 -79 0 -114 -49 -64 -91 l24 -22 -36
-29 c-53 -42 -144 -95 -175 -103 -40 -10 -62 -39 -55 -73 4 -22 0 -38 -18 -62
-44 -60 -60 -125 -59 -240 1 -60 7 -122 15 -145 13 -37 17 -40 53 -40 30 0 47
-8 74 -32 20 -18 46 -33 58 -33 12 0 29 -11 38 -25 11 -16 22 -22 34 -18 26 9
52 34 52 51 0 18 52 102 63 102 4 0 32 16 62 37 31 20 56 34 58 32 1 -2 7 -13
13 -24 7 -13 31 -25 72 -35 60 -14 82 -30 43 -30 -11 0 -30 -13 -43 -28 -13
-17 -42 -34 -67 -41 -135 -39 -231 -114 -286 -223 -19 -39 -35 -76 -35 -83 0
-7 -21 -15 -51 -18 -56 -7 -146 -45 -195 -82 -28 -21 -47 -25 -173 -34 -150
-11 -146 -10 -301 -91 -41 -21 -85 -39 -98 -39 -83 -3 -162 -109 -162 -217 0
-65 57 -181 111 -227 59 -51 150 -78 249 -75 41 1 101 -4 132 -12 44 -11 69
-12 109 -4 57 12 139 -1 139 -22 0 -7 7 -20 16 -28 20 -21 227 -22 322 -2 136
29 133 29 125 -2 -9 -36 -7 -61 8 -78 13 -16 47 -18 68 -5 11 7 21 3 37 -14
31 -33 115 -56 207 -56 62 0 85 -4 105 -19 61 -44 252 -64 345 -36 26 8 47 12
47 9 0 -3 -16 -26 -36 -50 -41 -50 -41 -86 0 -104 29 -14 106 1 185 36 84 37
90 36 106 -10 14 -40 46 -74 101 -108 16 -9 53 -33 83 -52 30 -19 79 -39 110
-45 31 -6 83 -21 116 -32 33 -11 98 -24 145 -28 47 -4 103 -16 125 -26 32 -14
71 -18 193 -20 90 -1 165 -7 182 -14 18 -8 34 -8 45 -3 11 6 35 3 73 -10 44
-15 71 -18 122 -13 85 9 77 9 140 -9 37 -11 73 -14 112 -10 39 4 75 1 113 -10
34 -10 75 -15 103 -12 26 3 97 10 158 15 158 15 195 36 249 139 20 40 26 64
23 98 l-3 44 50 9 50 8 19 -39 c10 -21 35 -51 54 -65 19 -15 47 -39 61 -54 19
-20 40 -29 81 -34 30 -4 65 -13 77 -21 15 -10 46 -14 100 -12 63 1 94 -4 163
-27 78 -26 99 -28 270 -32 292 -7 406 -7 540 0 69 4 137 7 152 7 17 1 35 12
52 31 80 95 52 255 -70 402 -24 29 -32 44 -24 52 36 36 -22 171 -111 256 -53
52 -57 59 -39 65 22 7 35 43 26 72 -3 10 -32 31 -64 45 -39 19 -78 49 -122 95
-89 94 -150 161 -150 165 0 2 15 2 34 0 28 -3 37 1 51 21 13 21 14 30 4 48
-27 52 -124 102 -286 150 -113 33 -184 64 -219 97 -24 23 -94 107 -94 113 0 2
36 3 79 1 74 -4 80 -3 95 20 24 36 10 62 -60 108 -73 48 -134 113 -199 212
-25 36 -49 69 -55 73 -16 10 -11 38 11 64 16 20 29 24 78 25 72 1 89 15 134
105 29 59 32 76 36 176 3 95 6 112 23 124 17 11 19 21 14 65 -18 167 -19 216
-2 216 8 0 23 11 32 25 33 50 -7 207 -72 283 -34 40 -92 182 -74 182 24 0 40
34 40 85 0 77 -17 149 -55 232 -26 57 -30 73 -19 77 20 8 18 66 -3 82 -17 12
-16 13 4 14 28 0 46 33 38 70 -3 15 -19 49 -36 74 -17 28 -29 60 -29 80 0 18
-13 59 -29 91 -22 44 -27 63 -20 77 13 25 -10 67 -63 113 -26 23 -38 39 -30
42 28 10 6 98 -36 146 -13 15 -14 22 -4 37 18 29 15 54 -11 78 -32 30 -127 71
-199 86 l-63 13 -5 69 c-7 86 -32 140 -110 235 -54 67 -59 76 -54 109 10 65
-37 90 -92 48z m100 -201 c76 -90 91 -129 91 -235 l0 -92 51 0 c56 0 167 -30
199 -54 19 -14 18 -15 -22 -16 -23 0 -44 -4 -47 -9 -3 -5 14 -21 39 -35 24
-15 58 -47 75 -72 l31 -45 -28 7 c-15 4 -42 13 -60 21 -18 7 -37 13 -43 13
-36 0 22 -70 125 -151 36 -28 65 -53 65 -55 0 -2 -18 -1 -40 2 -22 4 -40 2
-40 -3 0 -5 20 -25 44 -45 69 -58 142 -181 86 -146 -10 7 -22 9 -26 5 -8 -7
11 -39 67 -113 22 -28 39 -54 39 -58 0 -3 -11 -4 -25 0 -24 6 -25 4 -25 -40 0
-37 -3 -45 -14 -39 -21 12 -184 148 -182 151 2 1 22 -5 46 -13 49 -17 60 -18
60 -6 0 17 -90 118 -135 150 -25 18 -42 37 -39 43 4 6 2 8 -4 4 -9 -5 -95 33
-111 50 -3 4 20 4 52 2 71 -6 73 5 16 67 -44 47 -124 85 -182 85 -70 0 -75 5
-64 66 5 30 6 58 3 62 -4 3 -28 -2 -54 -11 -52 -19 -51 -17 29 44 19 15 31 30
27 34 -13 13 -91 24 -172 25 -71 0 -78 2 -61 14 11 8 23 12 27 10 4 -3 5 1 3
9 -4 9 12 23 45 41 28 15 49 33 47 39 -2 7 -30 16 -61 22 l-58 10 52 30 c54
31 63 50 23 50 -13 -1 -23 2 -23 5 0 13 49 59 90 86 76 49 76 63 0 56 -27 -2
-50 -1 -50 2 0 4 7 23 15 43 8 20 13 38 11 40 -10 11 -39 -51 -40 -85 -1 -32
2 -37 21 -34 17 2 11 -7 -28 -46 -32 -32 -49 -58 -49 -74 0 -13 -11 -35 -25
-48 -14 -13 -25 -32 -25 -42 0 -15 8 -18 46 -18 l45 0 -61 -56 c-98 -92 -98
-93 24 -87 57 3 116 3 132 -1 l28 -7 -29 -19 c-38 -25 -71 -78 -57 -92 6 -6
16 -7 24 -2 7 5 28 14 46 20 l32 12 -6 -37 c-3 -20 -8 -44 -10 -53 -6 -20 5
-23 109 -37 65 -9 139 -42 165 -74 10 -12 4 -16 -35 -22 -27 -5 -78 -8 -115
-7 -67 0 -69 1 -125 52 -65 58 -153 103 -239 124 -33 8 -49 15 -36 15 34 1 26
17 -18 35 -48 19 -175 40 -196 32 -13 -5 -14 1 -7 42 16 101 7 128 -81 236
-65 78 -86 123 -86 175 l1 36 19 -37 c18 -33 141 -148 158 -148 4 0 15 25 25
56 17 55 44 104 56 104 3 0 7 -26 9 -57 1 -31 5 -59 7 -61 2 -3 34 23 70 56
35 34 91 79 122 101 32 21 78 60 102 85 l45 46 23 -41 c12 -22 42 -64 67 -92z
m-1834 -539 c19 -6 58 -22 85 -37 28 -14 54 -28 59 -30 5 -2 6 11 3 28 l-7 32
38 -31 c25 -20 74 -42 150 -66 165 -52 199 -88 228 -240 6 -31 4 -34 -18 -34
-34 0 -132 -35 -183 -65 -58 -34 -126 -102 -160 -160 -33 -55 -65 -146 -65
-184 -1 -44 -29 -68 -95 -79 -33 -5 -62 -8 -65 -5 -3 2 21 29 53 60 31 30 55
59 51 64 -3 5 -22 9 -42 9 -35 1 -36 1 -17 16 41 31 65 54 65 64 0 5 -15 13
-32 18 l-33 8 43 24 c23 13 42 27 42 32 0 15 -53 29 -83 22 -28 -6 -29 -5 -15
15 32 45 170 137 218 144 34 5 35 21 4 46 -30 24 -98 46 -192 62 -34 6 -61 13
-58 16 3 3 33 15 67 28 35 12 65 27 67 33 9 28 -132 71 -236 73 -49 0 -54 2
-34 11 12 6 21 16 19 22 -4 15 -87 56 -112 55 -14 0 -9 -6 18 -18 58 -27 61
-35 22 -50 -35 -12 -47 -35 -22 -43 6 -2 48 -5 92 -7 73 -2 137 -12 189 -28
16 -4 7 -12 -40 -33 -92 -42 -110 -80 -37 -80 64 0 251 -50 233 -62 -3 -2 -31
-16 -63 -33 -77 -40 -141 -92 -166 -136 -12 -20 -21 -40 -21 -44 0 -3 24 -4
53 0 l52 6 -32 -22 c-40 -26 -42 -44 -7 -62 l27 -14 -51 -24 c-71 -33 -66 -59
10 -59 l31 0 -41 -44 c-42 -45 -77 -104 -68 -113 2 -3 33 2 68 11 36 9 69 16
74 16 5 0 -11 -44 -37 -97 -53 -112 -64 -150 -79 -283 -6 -52 -20 -113 -30
-135 -23 -47 -116 -143 -106 -108 32 105 46 167 38 172 -5 3 -12 20 -17 36
l-7 30 -22 -29 c-11 -16 -31 -41 -44 -55 l-22 -26 9 25 c6 14 20 66 32 115 11
50 30 112 41 138 12 26 18 50 16 53 -3 2 -27 -5 -53 -16 -26 -11 -50 -18 -53
-15 -3 3 16 32 42 66 26 33 45 63 42 66 -3 4 -35 -6 -71 -22 -36 -15 -68 -25
-71 -23 -3 3 11 26 30 51 20 26 31 49 26 52 -7 4 -6 13 0 25 15 29 -6 35 -37
11 -14 -12 -28 -19 -31 -17 -8 9 45 112 78 149 18 21 30 40 27 44 -4 3 -34 -1
-67 -9 -33 -8 -60 -11 -60 -6 0 24 98 97 152 112 23 7 43 17 45 22 1 5 -24 17
-56 27 -32 10 -76 31 -97 45 l-39 26 50 9 c27 4 51 10 53 12 2 2 -13 25 -32
52 -51 71 -65 138 -52 241 7 63 7 88 -2 103 -7 10 -12 20 -12 23 0 3 135 32
190 40 35 5 118 -4 160 -16z m1462 -6 c9 -9 4 -12 -19 -12 -48 0 -133 -22
-133 -34 0 -7 30 -10 90 -8 164 7 292 -38 387 -135 24 -25 42 -47 40 -50 -3
-2 -21 7 -42 21 -54 37 -64 21 -18 -28 22 -22 62 -70 90 -106 28 -36 77 -89
109 -119 117 -108 204 -194 204 -203 0 -4 -17 2 -38 16 -52 33 -139 76 -153
76 -7 0 49 -62 123 -139 119 -121 141 -148 176 -222 44 -91 103 -239 95 -239
-23 0 -277 170 -371 250 -93 78 -132 98 -233 118 -69 13 -93 14 -153 4 -81
-14 -112 -33 -139 -85 -21 -41 -25 -70 -13 -104 7 -22 5 -23 -44 -23 -58 0
-99 -18 -128 -55 l-20 -26 -7 66 c-4 37 -5 84 -2 106 11 83 -63 15 -83 -76
l-6 -30 -17 33 c-10 17 -24 32 -32 32 -18 0 -17 3 -6 -38 12 -39 6 -40 -57 -8
-92 46 -168 42 -108 -5 23 -18 106 -132 106 -145 0 -2 -24 -4 -53 -4 -28 0
-66 -4 -83 -9 -30 -9 -32 -7 -43 29 -16 54 -81 110 -127 110 -133 0 -255 -184
-319 -482 -10 -43 -21 -78 -26 -78 -4 0 -23 13 -42 30 -43 37 -97 154 -104
225 -5 46 -9 55 -23 50 -15 -5 -18 9 -28 112 -7 65 -16 141 -21 168 -6 28 -10
87 -10 133 -1 74 -11 103 -24 70 -12 -29 -6 32 8 87 44 167 178 292 352 328
49 10 70 20 99 50 21 21 48 40 59 43 12 3 28 20 36 37 16 37 66 56 102 40 18
-9 27 -6 54 19 22 22 44 32 77 35 25 3 46 9 46 13 0 17 85 102 126 126 76 45
120 54 232 51 60 -2 108 -9 114 -15z m508 -259 c30 -8 79 -28 108 -45 52 -30
177 -137 168 -145 -2 -2 -31 7 -65 21 -33 13 -63 21 -66 17 -6 -10 73 -85 180
-170 102 -82 105 -85 78 -77 -34 11 -35 -9 -2 -50 35 -44 64 -98 86 -158 15
-42 33 -126 27 -126 -2 0 -15 20 -30 45 -23 40 -44 58 -44 38 0 -21 30 -221
36 -241 l7 -23 -36 21 c-27 16 -40 34 -57 83 -50 137 -100 217 -205 326 -87
91 -94 101 -57 79 24 -14 59 -39 78 -57 33 -29 54 -39 54 -26 0 3 -12 29 -26
57 -16 31 -57 80 -107 127 -126 117 -199 192 -237 241 -19 25 -24 37 -13 26
34 -29 46 -16 23 26 l-20 37 33 -5 c17 -3 57 -13 87 -21z m-175 -587 c33 -7
71 -19 85 -26 45 -24 110 -82 103 -93 -3 -6 -1 -7 6 -3 7 4 26 -5 46 -22 18
-17 85 -64 147 -106 87 -58 118 -84 132 -112 9 -20 13 -41 9 -45 -4 -4 -33 -9
-63 -11 l-55 -3 93 -92 c51 -50 89 -94 84 -97 -5 -3 -31 2 -56 10 -26 9 -49
15 -51 12 -2 -2 13 -30 34 -63 40 -64 77 -143 70 -149 -2 -2 -18 -6 -36 -9
-27 -4 -35 0 -63 34 -32 41 -33 47 0 27 10 -7 22 -9 25 -6 21 20 -92 142 -175
190 -25 14 -79 37 -120 49 -41 13 -95 36 -120 52 l-45 28 38 -6 c44 -9 46 0 8
42 -64 71 -164 96 -271 68 -36 -9 -71 -22 -78 -27 -7 -6 -15 -8 -18 -5 -10 10
102 116 130 123 30 7 30 31 0 26 -18 -2 -18 -2 0 13 11 8 23 15 28 15 14 0 38
58 38 93 0 20 -8 42 -21 55 -11 12 -17 27 -13 34 4 7 3 8 -4 4 -7 -4 -20 -2
-29 3 -26 15 67 14 142 -3z m-1651 -66 c9 0 15 -23 19 -72 11 -132 44 -378 51
-385 4 -4 11 -2 15 6 5 8 10 -1 14 -26 16 -93 102 -217 169 -242 26 -10 28 -8
33 17 40 204 105 390 160 457 l17 20 -7 -20 c-19 -58 -17 -72 15 -108 17 -20
46 -42 65 -48 21 -8 31 -17 28 -26 -4 -9 6 -13 37 -13 25 0 39 -4 35 -10 -3
-5 -14 -10 -23 -10 -10 0 -35 -12 -57 -27 -33 -22 -36 -27 -21 -33 15 -5 8
-10 -27 -24 -58 -22 -129 -99 -151 -163 -20 -58 -20 -67 -1 -59 19 7 19 6 -9
-45 -34 -61 -50 -160 -36 -224 7 -27 15 -84 20 -127 9 -84 23 -137 50 -183 9
-16 22 -56 29 -87 13 -62 17 -67 35 -43 9 12 11 8 11 -22 0 -28 4 -38 16 -37
11 1 14 -6 11 -25 -4 -34 10 -102 23 -102 5 0 20 30 32 67 29 85 39 96 36 39
-1 -25 -1 -45 2 -45 13 0 44 95 39 117 -5 19 -9 21 -15 11 -5 -7 -9 -10 -9 -5
0 31 212 273 230 262 4 -3 7 3 6 12 -1 11 18 27 54 45 30 15 72 45 92 67 37
40 48 37 48 -10 0 -29 11 -24 65 31 l48 49 29 -20 c36 -26 58 -18 58 20 l0 30
35 -15 c19 -8 62 -17 95 -21 69 -7 79 6 33 43 l-27 21 59 -12 c33 -6 88 -15
123 -19 73 -8 81 3 30 47 l-33 27 30 -5 c17 -4 71 -17 120 -30 50 -14 164 -34
255 -46 170 -22 242 -42 305 -84 65 -45 71 -31 20 45 -19 29 -35 54 -35 57 0
3 -15 27 -34 53 l-35 48 37 -10 c20 -5 44 -16 52 -24 11 -9 28 -11 52 -8 34 6
36 5 49 -32 21 -61 18 -199 -6 -263 l-20 -55 -5 54 c-6 66 -23 74 -39 18 -7
-24 -19 -54 -26 -67 -12 -23 -12 -23 -19 18 -8 49 -31 55 -41 10 -4 -16 -28
-62 -55 -102 -37 -56 -50 -87 -59 -139 -13 -74 -40 -149 -41 -111 -1 51 -23
70 -34 28 -3 -13 -11 -37 -17 -52 l-11 -28 -12 39 c-16 55 -31 55 -46 0 -7
-25 -31 -69 -52 -97 -21 -28 -38 -60 -38 -70 0 -10 -8 -32 -17 -50 -17 -32
-17 -32 -20 -7 -8 63 -15 90 -22 90 -10 0 -76 -134 -85 -173 -4 -15 -15 -42
-26 -60 l-20 -32 -1 65 c-1 85 -11 153 -25 157 -6 2 -16 -30 -24 -79 l-13 -83
-14 33 c-15 36 -33 42 -33 11 0 -18 -4 -15 -25 15 -14 21 -22 42 -19 48 4 7 2
8 -4 4 -6 -4 -17 2 -24 14 -17 27 -38 26 -38 -2 0 -22 -1 -22 -26 5 -34 37
-45 26 -28 -30 8 -25 14 -74 14 -107 l-1 -61 -37 73 c-33 63 -44 76 -81 93
-54 24 -51 24 -51 -5 0 -22 -5 -20 -54 30 -52 52 -95 72 -82 39 5 -14 2 -14
-24 0 -35 18 -42 9 -29 -39 6 -20 9 -41 7 -46 -2 -5 -26 8 -54 30 -29 21 -54
37 -57 34 -3 -3 -19 2 -36 11 -37 19 -56 12 -41 -15 5 -10 10 -21 10 -24 0 -7
-117 60 -164 94 -28 22 -42 27 -47 18 -4 -7 -5 -16 -2 -21 3 -5 9 -24 13 -43
8 -33 8 -33 -68 34 -42 37 -107 98 -145 135 -38 38 -73 65 -78 60 -4 -4 -4
-28 1 -53 4 -25 7 -46 5 -48 -8 -9 -81 120 -105 186 -25 71 -27 87 -25 212 1
74 0 138 -2 143 -3 4 -12 0 -20 -9 -15 -15 -17 -14 -26 7 -5 13 -7 71 -4 129
l6 105 -28 -33 c-16 -18 -33 -51 -40 -72 -6 -22 -16 -40 -21 -40 -11 0 -45 91
-59 160 -6 30 -15 111 -21 179 -6 69 -12 126 -14 128 -2 2 -15 -10 -30 -27
-14 -17 -29 -29 -34 -26 -4 3 -5 35 -1 73 10 90 11 133 1 133 -4 0 -18 -18
-32 -40 -15 -24 -28 -36 -34 -30 -5 5 -11 82 -13 172 l-5 163 53 105 c49 97
54 102 57 73 2 -19 9 -33 16 -33z m1113 -241 c9 -9 16 -2 32 28 28 56 63 76
148 83 40 3 73 4 73 3 0 -2 -15 -16 -32 -32 -18 -16 -30 -32 -26 -36 3 -3 30
1 59 9 29 9 63 16 76 16 20 0 18 -4 -20 -40 -24 -21 -52 -56 -63 -76 -10 -20
-41 -59 -69 -86 l-50 -50 63 42 c101 66 156 90 225 97 73 6 152 -14 183 -48
18 -20 18 -20 -9 -14 -31 8 -97 -2 -97 -14 0 -5 20 -14 45 -21 25 -7 66 -26
92 -42 26 -17 71 -36 101 -44 84 -22 157 -61 217 -116 31 -28 54 -52 52 -54
-2 -3 -30 7 -61 22 -59 27 -90 24 -46 -5 55 -36 120 -105 136 -146 12 -28 30
-49 51 -60 18 -10 40 -27 50 -38 17 -20 17 -20 -2 -12 -37 15 -105 28 -111 22
-3 -3 10 -26 30 -50 39 -48 44 -59 21 -51 -27 11 -16 -7 33 -52 l47 -45 -42
21 c-63 30 -138 47 -290 65 -131 16 -144 19 -258 72 -66 30 -170 85 -231 121
-105 62 -111 68 -103 90 5 13 9 50 9 83 0 53 -4 64 -28 88 -51 51 -172 47
-282 -9 -53 -27 -71 -58 -77 -133 -5 -57 -3 -65 26 -104 17 -24 31 -49 31 -57
0 -35 -49 -146 -90 -204 -25 -35 -55 -80 -67 -100 -12 -19 -71 -88 -131 -153
-115 -122 -154 -178 -184 -263 l-18 -51 1 60 c2 80 1 83 -17 60 -15 -19 -16
-15 -11 55 4 41 9 86 13 99 5 17 3 22 -6 19 -8 -2 -23 -33 -35 -69 -21 -61
-22 -62 -29 -34 -4 17 -21 58 -38 92 -26 54 -30 72 -30 145 0 58 7 101 21 143
23 68 24 75 13 75 -5 0 -19 -20 -31 -45 -12 -25 -25 -45 -28 -45 -3 0 -3 33
-1 74 6 91 40 168 99 221 48 43 44 56 -9 30 -20 -11 -41 -21 -46 -24 -16 -7
37 78 68 110 64 66 158 85 265 53 29 -8 55 -13 59 -10 7 8 -79 45 -138 59 -28
6 -50 15 -50 18 0 10 83 29 124 29 19 0 37 4 41 10 5 8 -15 16 -99 36 -26 6
-27 8 -10 18 11 6 43 13 73 16 30 3 56 10 58 15 2 6 -21 19 -49 29 l-53 19 34
14 c52 22 139 35 182 28 56 -10 60 12 14 83 -21 31 -47 68 -59 81 l-21 23 25
-7 c14 -4 51 -21 83 -37 l57 -29 9 23 8 23 7 -23 c12 -36 36 -27 36 13 0 20 8
52 17 73 l17 37 6 -102 c3 -57 10 -107 17 -114z m-2052 -491 c57 -14 222 -101
245 -129 3 -3 25 -20 49 -37 24 -18 40 -32 34 -32 -10 0 -84 52 -117 82 -11
10 -23 18 -28 18 -4 0 -30 13 -56 30 l-49 30 -64 -22 c-61 -20 -239 -115 -239
-127 0 -3 24 -7 53 -9 58 -3 117 -19 117 -32 0 -5 -51 -25 -112 -45 -62 -20
-131 -46 -153 -57 -53 -28 -125 -77 -125 -87 0 -4 19 -8 42 -9 51 -2 108 -20
108 -33 0 -6 -17 -17 -37 -26 -50 -20 -49 -19 -27 -44 l19 -22 -66 7 c-41 5
-83 3 -108 -4 -57 -15 -54 -34 4 -26 25 4 45 5 45 1 0 -18 -77 -114 -111 -137
-41 -29 -45 -29 -29 3 8 14 7 19 -3 19 -16 0 -45 -30 -81 -84 -15 -22 -26 -32
-26 -22 0 9 -4 16 -9 16 -17 0 -30 -26 -33 -64 -1 -20 -5 -39 -9 -42 -4 -2
-20 25 -35 61 -16 36 -32 65 -36 65 -5 0 -8 -24 -8 -52 l0 -53 -21 25 c-11 14
-31 48 -44 75 l-23 50 -11 -29 c-17 -43 -23 -26 -22 66 1 119 21 171 93 240
33 31 54 59 48 63 -5 3 -14 3 -20 0 -5 -3 -10 -2 -10 3 0 6 10 12 23 16 12 3
72 40 133 83 62 43 120 83 130 89 20 12 18 14 -51 40 -16 5 -10 9 25 14 25 4
84 20 130 35 47 14 114 30 150 35 36 5 90 16 120 25 32 9 71 14 93 10 42 -6
48 5 15 28 -23 16 -22 16 12 11 19 -4 53 -11 75 -16z m2059 -1380 c46 -153
140 -318 199 -350 18 -9 19 -8 13 13 -20 65 -18 240 2 238 4 0 35 -43 70 -96
59 -91 62 -95 62 -62 0 44 17 106 32 115 17 11 91 -78 127 -150 29 -60 81
-209 81 -233 0 -6 5 -24 11 -40 l11 -28 14 28 c17 32 34 161 34 260 0 69 17
157 29 157 14 0 70 -67 117 -140 l49 -75 3 53 c2 29 -4 90 -12 136 -21 108
-21 186 -2 186 8 0 30 -19 48 -41 97 -122 141 -154 237 -174 l34 -7 -38 37
c-37 38 -65 89 -65 121 0 14 8 16 49 11 68 -8 161 -53 256 -123 154 -115 234
-157 321 -170 l48 -7 -33 42 c-18 22 -38 38 -43 35 -6 -4 -8 -3 -5 2 8 13 -60
87 -73 79 -5 -3 -7 0 -4 8 3 8 -6 21 -20 31 -27 17 -34 40 -16 51 5 3 7 0 4
-8 -3 -9 21 -41 63 -83 37 -38 107 -113 156 -166 48 -53 108 -110 134 -127 37
-25 42 -31 24 -31 -12 0 -38 7 -58 15 -19 8 -39 15 -44 15 -35 0 40 -84 137
-153 59 -42 116 -102 138 -146 9 -16 16 -32 16 -35 0 -2 -26 11 -57 30 -31 19
-60 34 -65 34 -28 0 15 -70 112 -181 110 -124 154 -210 148 -290 l-3 -44 -21
45 c-32 66 -93 134 -109 120 -12 -10 -74 2 -192 36 -18 5 -23 2 -23 -11 0 -14
-5 -16 -27 -10 -78 21 -233 52 -237 47 -3 -2 -2 -17 1 -33 6 -32 -2 -36 -26
-16 -9 8 -32 20 -51 27 -19 8 -54 26 -77 42 -23 15 -44 28 -47 28 -4 0 -13
-18 -22 -40 -16 -39 -17 -40 -31 -20 -8 11 -18 20 -23 20 -6 0 -33 -31 -60
-70 -55 -75 -108 -122 -164 -145 -45 -19 -67 -19 -42 0 10 8 24 12 30 8 6 -3
8 -3 4 2 -4 4 0 21 9 36 19 32 11 50 -15 31 -36 -26 -99 -50 -147 -55 -27 -3
-44 -3 -37 0 25 10 12 33 -18 33 -44 0 -93 23 -118 55 -17 21 -22 41 -22 84 1
49 2 54 14 39 7 -10 18 -18 23 -18 10 0 45 72 61 125 l9 30 13 -40 c7 -22 16
-44 20 -49 14 -14 30 31 41 116 7 53 22 103 39 139 37 73 45 118 30 178 -11
47 -66 148 -75 139 -3 -3 4 -22 14 -44 26 -52 40 -138 31 -177 -4 -18 -22 -61
-39 -97 -23 -49 -31 -80 -32 -125 l-1 -60 -15 38 c-9 20 -21 37 -28 37 -6 0
-22 -33 -35 -73 -29 -92 -32 -95 -42 -67 -9 24 -10 24 -49 -23 -49 -57 -97
-73 -167 -58 -27 5 -51 17 -57 27 -23 41 -113 128 -168 162 -36 22 -66 49 -78
71 -21 41 -48 71 -102 119 l-38 32 56 0 c74 0 72 17 -7 54 -142 66 -233 170
-283 324 -9 29 -19 51 -22 48 -8 -8 27 -106 61 -171 38 -73 134 -172 199 -203
26 -13 47 -25 47 -27 0 -2 -22 -1 -50 2 -32 4 -50 2 -50 -5 0 -5 34 -40 74
-77 45 -40 84 -84 97 -111 14 -30 33 -51 58 -64 117 -61 186 -149 212 -271 14
-69 6 -90 -23 -54 -22 28 -48 33 -48 9 0 -17 -2 -17 -122 26 -43 16 -80 25
-83 20 -3 -5 -1 -20 5 -35 5 -14 10 -38 10 -52 l0 -26 -22 24 c-13 14 -57 50
-98 80 -41 31 -81 63 -89 72 -21 26 -29 12 -23 -44 l5 -52 -29 20 c-46 33 -75
68 -89 109 -18 53 -30 53 -45 -1 -7 -25 -18 -44 -23 -42 -6 2 -19 20 -30 40
-10 20 -23 37 -28 37 -4 0 -19 -18 -31 -40 -13 -22 -26 -40 -29 -40 -3 0 -10
14 -15 32 -5 17 -14 33 -19 35 -12 4 -85 -103 -85 -123 0 -21 -18 -17 -25 6
-3 11 -10 20 -14 20 -4 0 -27 -39 -51 -86 -28 -55 -46 -81 -51 -73 -6 10 -13
10 -34 1 -41 -19 -65 -15 -65 9 0 16 -4 19 -17 14 -81 -34 -192 -35 -278 -2
-22 8 -73 18 -113 21 -41 4 -99 16 -130 27 -31 11 -84 25 -117 30 -58 9 -131
47 -148 76 -5 8 -20 18 -33 23 -20 8 -51 56 -42 66 2 1 42 -17 89 -40 98 -48
166 -66 247 -66 83 0 90 8 53 61 -42 60 -58 149 -42 238 13 67 26 101 40 101
5 0 31 -37 59 -83 51 -82 114 -155 98 -112 -5 11 -10 67 -13 125 -9 166 27
309 107 425 17 25 35 45 40 45 6 0 10 -30 10 -67 0 -71 17 -151 41 -193 13
-23 14 -20 21 55 11 124 26 179 68 243 35 54 126 138 203 185 30 19 29 22 28
-63 0 -30 5 -68 13 -85 l13 -30 47 94 c58 114 79 143 127 177 39 27 173 83
200 84 11 0 24 -25 43 -92z m-3299 -48 c3 -5 -2 -10 -12 -10 -17 -1 -53 -22
-53 -31 0 -3 20 -15 45 -29 52 -28 56 -43 19 -67 l-26 -17 34 -17 c41 -21 63
-45 49 -53 -5 -3 -37 -9 -70 -13 -34 -3 -64 -10 -67 -15 -7 -11 74 -48 108
-48 69 0 21 -40 -67 -55 -80 -13 -81 -14 -49 -40 l29 -23 -50 -23 c-28 -13
-52 -25 -54 -26 -3 -2 4 -9 14 -17 18 -13 14 -15 -38 -21 -76 -10 -129 -2
-185 27 -56 29 -77 57 -107 141 -24 68 -23 105 3 154 19 35 62 63 98 63 19 0
49 11 70 25 39 27 122 55 161 55 13 0 23 5 23 10 0 6 -5 10 -12 10 -32 0 12
19 52 23 25 2 53 4 62 5 9 1 20 -2 23 -8z m4755 -989 c0 -4 26 -20 58 -34 32
-15 76 -38 97 -53 42 -28 55 -22 55 29 0 23 4 27 18 22 11 -3 53 -12 95 -20
42 -8 93 -21 113 -30 45 -19 44 -19 44 3 0 18 5 17 97 -5 96 -24 125 -39 145
-76 15 -29 -17 -46 -87 -47 -102 0 -116 11 -119 90 -2 50 -23 28 -22 -23 1
-47 -1 -51 -29 -59 -41 -12 -167 -2 -232 20 -44 14 -55 22 -64 49 -6 18 -14
35 -19 38 -9 6 -8 -8 4 -44 12 -36 -15 -51 -94 -51 -75 0 -159 34 -186 76 -14
21 -14 26 2 53 10 16 21 28 26 25 5 -3 5 -10 2 -16 -4 -6 -2 -8 4 -4 6 3 13 2
17 -4 13 -22 35 -8 46 30 11 35 29 55 29 31z m-1635 -52 c-3 -10 -1 -20 4 -24
7 -4 8 1 4 12 -5 14 -1 13 20 -6 l25 -23 20 38 c18 35 20 36 26 16 4 -12 32
-42 61 -68 30 -25 52 -50 49 -55 -3 -5 -14 1 -25 13 l-19 23 10 -28 c10 -28
13 -104 3 -80 -3 8 -14 11 -28 7 -35 -9 -165 55 -165 81 0 11 -7 28 -14 38
-13 17 -14 14 -9 -21 l5 -40 -63 -10 c-58 -10 -140 -4 -155 11 -3 3 0 15 6 27
l11 21 18 -22 c18 -22 18 -22 56 56 l38 79 17 -35 c20 -38 52 -47 72 -20 12
14 11 14 -4 2 -23 -17 -23 -7 -1 30 16 27 19 28 30 12 7 -9 11 -25 8 -34z
m358 -98 c27 -19 45 -37 41 -43 -4 -6 -2 -8 4 -4 6 3 18 -4 26 -16 15 -21 15
-23 -1 -29 -29 -12 -157 -3 -188 12 -33 16 -44 47 -23 63 21 15 38 51 38 77
l0 23 28 -26 c15 -14 48 -39 75 -57z"/>
</g>
</svg>
